<svg xmlns="http://www.w3.org/2000/svg" direction="ltr" viewBox="1023.1938539075595 559.2806775822136 148.625 144.75" stroke-linecap="round" stroke-linejoin="round" data-color-mode="light" class="tl-container tl-theme__force-sRGB tl-theme__light" style="background-color: transparent;"><defs/><g transform="matrix(1, 0, 0, 1, 1100.9062, 591.2807)" opacity="1"><g transform="scale(1)"><path d="M0,0 Q0,4.0136 -0.0237,5.466 T-0.0804,8.0777 -0.1773,10.2331 -0.2993,12.0802 -0.4334,13.7016 -0.5981,15.22 -0.7564,16.7271 -0.8896,18.2311 -1.0106,19.6862 -1.1226,21.1337 -1.2295,22.6005 -1.3117,24.031 -1.3584,25.4409 -1.385,26.8155 -1.4001,28.2207 -1.4086,29.7376 -1.4135,31.3416 -1.4163,33.0222 -1.4179,34.7664 -1.4187,36.4929 -1.4431,38.2094 -1.4807,39.9268 -1.5021,41.5503 -1.5337,43.1408 -1.5948,44.6922 -1.6749,46.1 -1.7634,47.352 -1.8352,48.4682 -1.8975,49.5072 -1.9763,50.5092 -2.043,51.4631 -2.1024,52.4099 -2.1813,53.3797 -2.2498,54.3625 -2.308,55.3258 -2.3842,56.2779 -2.451,57.2237 -2.5325,58.1457 -2.6437,59.0542 -2.752,59.9549 -2.8805,60.8513 -2.997,61.7385 -3.1062,62.6001 -3.2353,63.4203 -3.3521,64.2372 -3.4615,65.0387 -3.5688,65.818 -3.6946,66.5981 -3.8332,67.3652 -3.955,68.1384 -4.0672,68.9151 -4.1545,69.6668 -4.2261,70.4042 -4.3098,71.1606 -4.4003,71.9007 -4.4956,72.6451 -4.5717,73.4054 -4.636,74.1343 -4.7173,74.8318 -4.7871,75.4845 -4.9346,76.8673 -5.2179,79.3431 L-5.3789,80.75 " stroke-linecap="round" fill="none" stroke="red" stroke-width="11" stroke-dasharray="none" stroke-dashoffset="0"/></g></g><g transform="matrix(1, 0, 0, 1, 1055.1939, 630.9298)" opacity="1"><g transform="scale(1)"><path d="M0,0 Q6.0946,-0.285 8.6611,-0.4393 T13.6507,-0.7526 18.4593,-1.0257 23.2325,-1.2522 28.0496,-1.4283 32.9996,-1.5284 38.0522,-1.5853 43.0483,-1.6176 47.8573,-1.636 52.4789,-1.6464 56.8591,-1.6523 60.8998,-1.6557 64.6261,-1.6576 67.9984,-1.6587 70.9806,-1.6593 73.5928,-1.6597 75.8327,-1.6599 77.7262,-1.66 79.8951,-1.6837 82.9111,-1.7384 L84.625,-1.7695 " stroke-linecap="round" fill="none" stroke="currentColor" stroke-width="11" stroke-dasharray="none" stroke-dashoffset="0"/></g></g></svg>
