<svg xmlns="http://www.w3.org/2000/svg" direction="ltr" viewBox="831.9198059413291 217.9748845945944 224.55490507689296 185.82558543171695" stroke-linecap="round" stroke-linejoin="round" data-color-mode="light" class="tl-container tl-theme__force-sRGB tl-theme__light" style="background-color: transparent;"><defs/><g transform="matrix(1, 0, 0, 1, 863.9198, 274.9231)" opacity="1"><g transform="scale(1)"><path d="M0,0 Q2.5044,-0.1837 3.514,-0.2337 T5.4544,-0.219 7.3258,-0.1191 9.1606,-0.0648 10.9217,-0.0353 12.6406,0.0727 14.3385,0.2233 16.08,0.3052 17.8432,0.3497 19.5672,0.468 21.2699,0.6264 23.012,0.7126 24.8305,0.8513 26.6904,1.0185 28.573,1.1095 30.4678,1.159 32.4282,1.0941 34.3654,0.967 36.235,0.8038 38.1229,0.621 40.0206,0.4297 41.8766,0.2337 43.7021,0.1272 45.511,-0.0227 47.3109,-0.1961 49.1607,-0.2904 50.9829,-0.4357 52.79,-0.6089 54.5967,-0.7948 56.3405,-0.9878 57.9951,-1.0928 59.6012,-1.1499 61.1809,-1.181 62.7541,-1.292 65.0298,-1.4465 67.6249,-1.5305 69.7348,-1.5762 71.5885,-1.6011 73.2559,-1.6146 74.869,-1.622 76.4525,-1.626 77.9729,-1.6282 79.4589,-1.6294 80.9262,-1.63 82.3834,-1.6304 83.7723,-1.6305 85.124,-1.6306 86.5183,-1.6307 87.8729,-1.5366 89.1433,-1.3914 90.3835,-1.2205 91.6073,-1.0358 92.8692,-0.9353 94.1519,-0.7866 95.3987,-0.6116 96.6262,-0.4246 97.8273,-0.231 98.9671,-0.0338 100.0892,0.1653 101.2487,0.3677 102.3658,0.5718 103.4128,0.7747 104.4217,0.9769 105.4098,1.0868 106.371,1.1467 107.2704,1.1792 108.1519,1.1969 109.0079,1.2066 109.8502,1.2118 110.6849,1.2146 111.4684,1.2162 112.2241,1.217 112.902,1.2175 113.5531,1.2177 114.5035,1.1261 115.8395,0.9249 L116.5663,0.8154 " stroke-linecap="round" fill="none" stroke="#9fa8b2" stroke-width="4.5" stroke-dasharray="none" stroke-dashoffset="0"/></g></g><g transform="matrix(1, 0, 0, 1, 863.9198, 290.3789)" opacity="1"><g transform="scale(1)"><path d="M0,0 Q2.5044,-0.1837 3.514,-0.2337 T5.4544,-0.219 7.3258,-0.1191 9.1606,-0.0648 10.9217,-0.0353 12.6406,0.0727 14.3385,0.2233 16.08,0.3052 17.8432,0.3497 19.5672,0.468 21.2699,0.6264 23.012,0.7126 24.8305,0.8513 26.6904,1.0185 28.573,1.1095 30.4678,1.159 32.4282,1.0941 34.3654,0.967 36.235,0.8038 38.1229,0.621 40.0206,0.4297 41.8766,0.2337 43.7021,0.1272 45.511,-0.0227 47.3109,-0.1961 49.1607,-0.2904 50.9829,-0.4357 52.79,-0.6089 54.5967,-0.7948 56.3405,-0.9878 57.9951,-1.0928 59.6012,-1.1499 61.1809,-1.181 62.7541,-1.292 65.0298,-1.4465 67.6249,-1.5305 69.7348,-1.5762 71.5885,-1.6011 73.2559,-1.6146 74.869,-1.622 76.4525,-1.626 77.9729,-1.6282 79.4589,-1.6294 80.9262,-1.63 82.3834,-1.6304 83.7723,-1.6305 85.124,-1.6306 86.5183,-1.6307 87.8729,-1.5366 89.1433,-1.3914 90.3835,-1.2205 91.6073,-1.0358 92.8692,-0.9353 94.1519,-0.7866 95.3987,-0.6116 96.6262,-0.4246 97.8273,-0.231 98.9671,-0.0338 100.0892,0.1653 101.2487,0.3677 102.3658,0.5718 103.4128,0.7747 104.4217,0.9769 105.4098,1.0868 106.371,1.1467 107.2704,1.1792 108.1519,1.1969 109.0079,1.2066 109.8502,1.2118 110.6849,1.2146 111.4684,1.2162 112.2241,1.217 112.902,1.2175 113.5531,1.2177 114.5035,1.1261 115.8395,0.9249 L116.5663,0.8154 " stroke-linecap="round" fill="none" stroke="#9fa8b2" stroke-width="4.5" stroke-dasharray="none" stroke-dashoffset="0"/></g></g><g transform="matrix(1, 0, 0, 1, 864.2963, 306.0083)" opacity="1"><g transform="scale(1)"><path d="M0,0 Q2.5044,-0.1837 3.514,-0.2337 T5.4544,-0.219 7.3258,-0.1191 9.1606,-0.0648 10.9217,-0.0353 12.6406,0.0727 14.3385,0.2233 16.08,0.3052 17.8432,0.3497 19.5672,0.468 21.2699,0.6264 23.012,0.7126 24.8305,0.8513 26.6904,1.0185 28.573,1.1095 30.4678,1.159 32.4282,1.0941 34.3654,0.967 36.235,0.8038 38.1229,0.621 40.0206,0.4297 41.8766,0.2337 43.7021,0.1272 45.511,-0.0227 47.3109,-0.1961 49.1607,-0.2904 50.9829,-0.4357 52.79,-0.6089 54.5967,-0.7948 56.3405,-0.9878 57.9951,-1.0928 59.6012,-1.1499 61.1809,-1.181 62.7541,-1.292 65.0298,-1.4465 67.6249,-1.5305 69.7348,-1.5762 71.5885,-1.6011 73.2559,-1.6146 74.869,-1.622 76.4525,-1.626 77.9729,-1.6282 79.4589,-1.6294 80.9262,-1.63 82.3834,-1.6304 83.7723,-1.6305 85.124,-1.6306 86.5183,-1.6307 87.8729,-1.5366 89.1433,-1.3914 90.3835,-1.2205 91.6073,-1.0358 92.8692,-0.9353 94.1519,-0.7866 95.3987,-0.6116 96.6262,-0.4246 97.8273,-0.231 98.9671,-0.0338 100.0892,0.1653 101.2487,0.3677 102.3658,0.5718 103.4128,0.7747 104.4217,0.9769 105.4098,1.0868 106.371,1.1467 107.2704,1.1792 108.1519,1.1969 109.0079,1.2066 109.8502,1.2118 110.6849,1.2146 111.4684,1.2162 112.2241,1.217 112.902,1.2175 113.5531,1.2177 114.5035,1.1261 115.8395,0.9249 L116.5663,0.8154 " stroke-linecap="round" fill="none" stroke="#9fa8b2" stroke-width="4.5" stroke-dasharray="none" stroke-dashoffset="0"/></g></g><g transform="matrix(1, 0, 0, 1, 864.4846, 322.993)" opacity="1"><g transform="scale(1)"><path d="M0,0 Q2.5044,-0.1837 3.514,-0.2337 T5.4544,-0.219 7.3258,-0.1191 9.1606,-0.0648 10.9217,-0.0353 12.6406,0.0727 14.3385,0.2233 16.08,0.3052 17.8432,0.3497 19.5672,0.468 21.2699,0.6264 23.012,0.7126 24.8305,0.8513 26.6904,1.0185 28.573,1.1095 30.4678,1.159 32.4282,1.0941 34.3654,0.967 36.235,0.8038 38.1229,0.621 40.0206,0.4297 41.8766,0.2337 43.7021,0.1272 45.511,-0.0227 47.3109,-0.1961 49.1607,-0.2904 50.9829,-0.4357 52.79,-0.6089 54.5967,-0.7948 56.3405,-0.9878 57.9951,-1.0928 59.6012,-1.1499 61.1809,-1.181 62.7541,-1.292 65.0298,-1.4465 67.6249,-1.5305 69.7348,-1.5762 71.5885,-1.6011 73.2559,-1.6146 74.869,-1.622 76.4525,-1.626 77.9729,-1.6282 79.4589,-1.6294 80.9262,-1.63 82.3834,-1.6304 83.7723,-1.6305 85.124,-1.6306 86.5183,-1.6307 87.8729,-1.5366 89.1433,-1.3914 90.3835,-1.2205 91.6073,-1.0358 92.8692,-0.9353 94.1519,-0.7866 95.3987,-0.6116 96.6262,-0.4246 97.8273,-0.231 98.9671,-0.0338 100.0892,0.1653 101.2487,0.3677 102.3658,0.5718 103.4128,0.7747 104.4217,0.9769 105.4098,1.0868 106.371,1.1467 107.2704,1.1792 108.1519,1.1969 109.0079,1.2066 109.8502,1.2118 110.6849,1.2146 111.4684,1.2162 112.2241,1.217 112.902,1.2175 113.5531,1.2177 114.5035,1.1261 115.8395,0.9249 L116.5663,0.8154 " stroke-linecap="round" fill="none" stroke="#9fa8b2" stroke-width="4.5" stroke-dasharray="none" stroke-dashoffset="0"/></g></g><g transform="matrix(1, 0, 0, 1, 864.4846, 338.4488)" opacity="1"><g transform="scale(1)"><path d="M0,0 Q2.5044,-0.1837 3.514,-0.2337 T5.4544,-0.219 7.3258,-0.1191 9.1606,-0.0648 10.9217,-0.0353 12.6406,0.0727 14.3385,0.2233 16.08,0.3052 17.8432,0.3497 19.5672,0.468 21.2699,0.6264 23.012,0.7126 24.8305,0.8513 26.6904,1.0185 28.573,1.1095 30.4678,1.159 32.4282,1.0941 34.3654,0.967 36.235,0.8038 38.1229,0.621 40.0206,0.4297 41.8766,0.2337 43.7021,0.1272 45.511,-0.0227 47.3109,-0.1961 49.1607,-0.2904 50.9829,-0.4357 52.79,-0.6089 54.5967,-0.7948 56.3405,-0.9878 57.9951,-1.0928 59.6012,-1.1499 61.1809,-1.181 62.7541,-1.292 65.0298,-1.4465 67.6249,-1.5305 69.7348,-1.5762 71.5885,-1.6011 73.2559,-1.6146 74.869,-1.622 76.4525,-1.626 77.9729,-1.6282 79.4589,-1.6294 80.9262,-1.63 82.3834,-1.6304 83.7723,-1.6305 85.124,-1.6306 86.5183,-1.6307 87.8729,-1.5366 89.1433,-1.3914 90.3835,-1.2205 91.6073,-1.0358 92.8692,-0.9353 94.1519,-0.7866 95.3987,-0.6116 96.6262,-0.4246 97.8273,-0.231 98.9671,-0.0338 100.0892,0.1653 101.2487,0.3677 102.3658,0.5718 103.4128,0.7747 104.4217,0.9769 105.4098,1.0868 106.371,1.1467 107.2704,1.1792 108.1519,1.1969 109.0079,1.2066 109.8502,1.2118 110.6849,1.2146 111.4684,1.2162 112.2241,1.217 112.902,1.2175 113.5531,1.2177 114.5035,1.1261 115.8395,0.9249 L116.5663,0.8154 " stroke-linecap="round" fill="none" stroke="#9fa8b2" stroke-width="4.5" stroke-dasharray="none" stroke-dashoffset="0"/></g></g><g transform="matrix(1, 0, 0, 1, 893.364, 307.2443)" opacity="1"><g transform="scale(1)"><path d="M0,0 Q-0.7411,0.8923 -1.0033,1.1775 T-1.4905,1.6818 -1.9201,2.063 -2.3804,2.3342 -2.9193,2.5239 -3.5005,2.6699 -3.9603,2.7709 -4.3741,2.8258 -4.9279,2.8341 -5.5788,2.7748 -6.3233,2.6362 -7.1188,2.4327 -7.9215,2.194 -8.7089,1.938 -9.4462,1.6723 -10.0939,1.3999 -10.6115,1.0812 -10.9938,0.6947 -11.2404,0.2288 -11.3746,-0.3229 -11.4283,-0.9412 -11.376,-1.6385 -11.2252,-2.4229 -10.9802,-3.2969 -10.5981,-4.2818 -10.0802,-5.3491 -9.4703,-6.3992 -8.7696,-7.3956 -7.9368,-8.3193 -7.0098,-9.1204 -6.012,-9.7915 -4.9357,-10.3053 -3.8353,-10.6469 -2.7232,-10.8328 -1.5843,-10.8496 -0.45,-10.6878 0.7009,-10.3656 1.8609,-9.9139 2.966,-9.3708 4.0187,-8.7358 5.022,-7.9863 5.9593,-7.1091 6.88,-6.0787 7.7712,-4.8806 8.5446,-3.506 9.1701,-1.9712 9.592,-0.3064 9.7399,1.5142 9.5533,3.4829 9.0207,5.5527 8.1968,7.6997 7.1104,9.8044 5.759,11.7373 4.1818,13.4481 2.3985,14.8671 0.4207,15.9364 -1.7022,16.6025 -3.9056,16.8361 -6.1542,16.6236 -8.4468,15.9353 -10.743,14.7951 -12.938,13.2603 -14.8915,11.4265 -16.5077,9.3646 -17.758,7.1575 -18.6226,4.9365 -19.093,2.7281 -19.1644,0.5693 -18.8728,-1.4344 -18.2831,-3.3113 -17.3659,-5.1408 -16.1484,-6.923 -14.7052,-8.6571 -13.1179,-10.323 -11.4521,-11.9107 -9.7447,-13.4558 -8.0351,-14.9334 -6.3237,-16.3321 -4.6113,-17.6457 -2.8778,-18.8486 -1.1138,-20.0157 0.6474,-21.2056 2.4067,-22.4033 4.1451,-23.6497 5.8104,-24.9671 7.3524,-26.3851 8.6846,-27.9023 9.7612,-29.4957 10.5527,-31.1261 11.0219,-32.7544 11.1335,-34.3638 10.8659,-35.9451 10.1648,-37.5068 9.0444,-39.0311 7.594,-40.5174 5.8794,-41.903 4.0414,-43.0652 2.1985,-43.9372 0.4356,-44.4737 -1.2019,-44.6768 -2.7094,-44.5564 -4.0223,-44.0825 -5.0862,-43.3363 -5.9116,-42.3622 -6.5258,-41.1264 -6.9222,-39.6196 -7.1174,-37.8631 -7.1614,-35.9088 -7.0609,-33.7846 -6.8421,-31.4615 -6.5794,-28.8793 -6.2917,-25.983 -5.97,-22.7892 -5.6513,-19.4159 -5.3567,-15.9649 -5.0742,-12.4927 -4.817,-9.1361 -4.5945,-5.9914 -4.3705,-3.0476 -4.1043,-0.2118 -3.7949,2.6288 -3.4416,5.4932 -3.0022,8.4553 -2.4556,11.5539 -1.8507,14.7067 -1.2538,17.8913 -0.7438,21.0931 -0.3429,24.2377 -0.0012,27.2447 0.3082,30.0081 0.6412,32.5102 1.0076,34.808 1.3499,36.9282 1.617,38.9294 1.7211,40.8261 1.5732,42.6037 1.1441,44.2099 0.437,45.5721 -0.5643,46.6949 -1.8284,47.5454 -3.2974,48.0347 -4.857,48.1233 -6.3629,47.8253 -7.7366,47.1304 -8.8743,46.0155 -9.7206,44.4589 -10.1617,42.418 -10.0102,39.8782 -8.9603,36.8585 -6.8058,33.5155 -3.8565,29.7534 L-2.2521,27.7069 " stroke-linecap="round" fill="none" stroke="#1d1d1d" stroke-width="4.5" stroke-dasharray="none" stroke-dashoffset="0"/></g></g><g transform="matrix(1, 0, 0, 1, 942.9562, 261.0079)" opacity="1"><g transform="scale(1)"><path d="M0,0 Q1.8053,0.2009 2.5709,0.2556 T4.0672,0.3399 5.5091,0.3529 6.8799,0.327 8.2914,0.2783 9.8052,0.1844 11.3355,0.1003 12.8368,0.0216 14.3193,-0.0541 15.7916,-0.1299 17.1827,-0.2386 18.4479,-0.3307 19.8413,-0.4138 21.5885,-0.5248 L22.539,-0.5852 " stroke-linecap="round" fill="none" stroke="#1d1d1d" stroke-width="4.5" stroke-dasharray="none" stroke-dashoffset="0"/></g></g><g transform="matrix(1, 0, 0, 1, 960.3674, 260.5569)" opacity="1"><g transform="scale(1)"><path d="M0,0 Q-0.3244,-1.39 -0.4523,-1.8662 T-0.7309,-2.6775 -1.0249,-3.2721 -1.327,-3.7125 -1.6336,-4.0293 -1.9211,-4.279 -2.1983,-4.4733 -2.4719,-4.6166 -2.7415,-4.7134 -3.0085,-4.7661 -3.296,-4.7759 -3.5953,-4.7436 -3.901,-4.7072 -4.2292,-4.6686 -4.5479,-4.608 -4.8621,-4.5353 -5.1759,-4.4393 -5.4691,-4.3286 -5.7708,-4.2099 -6.0955,-4.0889 -6.4319,-3.9646 -6.7768,-3.8002 -7.1278,-3.6139 -7.4609,-3.4353 -7.7647,-3.242 -8.0313,-3.0199 -8.2565,-2.8026 -8.4594,-2.588 -8.6288,-2.3748 -8.7633,-2.1623 -8.8786,-1.9489 -8.9808,-1.7556 -9.0561,-1.5727 -9.1168,-1.3768 -9.1892,-1.155 -9.2483,-0.8984 -9.3016,-0.623 -9.3517,-0.3389 -9.379,-0.0501 -9.3938,0.2239 -9.3808,0.5089 -9.3525,0.7981 -9.3175,1.0899 -9.259,1.4035 -9.1877,1.7496 -9.1095,2.1324 -9.0248,2.5144 -8.9167,2.856 -8.7988,3.1763 -8.6741,3.4681 -8.5457,3.723 -8.4139,3.9766 -8.2605,4.2127 -8.0983,4.4184 -7.9086,4.6076 -7.6829,4.769 -7.418,4.914 -7.1119,5.0701 -6.7835,5.2135 -6.4422,5.3299 -6.0946,5.4308 -5.745,5.5045 -5.3943,5.5655 -5.0198,5.6195 -4.6323,5.6676 -4.2392,5.7127 -3.8648,5.7372 -3.521,5.7693 -3.1915,5.8056 -2.8696,5.8254 -2.5523,5.8173 -2.2375,5.7941 -1.9256,5.7627 -1.635,5.7059 -1.3761,5.6165 -1.1343,5.4906 -0.9,5.3442 -0.6914,5.1677 -0.4969,4.9756 -0.3099,4.7749 -0.129,4.5488 0.0308,4.2901 0.1591,4.0149 0.2488,3.7495 0.2975,3.4694 0.324,3.1625 0.3385,2.8217 0.3265,2.4434 0.3002,2.0242 0.2642,1.583 0.223,1.1502 0.1808,0.741 0.138,0.3635 0.0949,-0.0156 0.0318,-0.3956 -0.0422,-0.7761 -0.1239,-1.1569 -0.2296,-1.5189 -0.388,-1.8708 -0.5968,-2.1964 -0.8509,-2.4699 -1.1497,-2.696 -1.4744,-2.8963 -1.8131,-3.0638 -2.1395,-3.1925 -2.4399,-3.3022 -2.7459,-3.3827 -3.094,-3.4056 -3.4657,-3.3785 -3.8502,-3.326 -4.2608,-3.2202 -4.6657,-3.0665 -5.0487,-2.8865 -5.3999,-2.6712 -5.6916,-2.4184 -5.9313,-2.1262 -6.1433,-1.7935 -6.2988,-1.4007 -6.4031,-0.9358 -6.4598,-0.4127 -6.4513,0.142 -6.4065,0.7536 -6.3202,1.396 -6.1923,2.0154 -6.022,2.6033 -5.8069,3.1558 -5.5272,3.668 -5.1731,4.1013 -4.7987,4.4539 -4.4128,4.7425 -4.0205,4.9379 -3.6254,5.0058 -3.2483,4.946 -2.9005,4.7965 -2.5494,4.5606 -2.1961,4.2205 -1.8417,3.7841 -1.5084,3.256 -1.246,2.6797 -1.1032,2.0961 -1.0868,1.5068 -1.1986,0.935 -1.4215,0.4123 -1.7051,-0.0459 -2.0216,-0.4499 -2.3955,-0.785 -2.8203,-1.0258 -3.2752,-1.1567 -3.7663,-1.1885 -4.2764,-1.1095 -4.7974,-0.8927 -5.3223,-0.582 -5.8508,-0.2013 -6.3621,0.276 -6.8219,0.8455 -7.1721,1.4648 -7.4033,2.1113 -7.5292,2.7523 -7.5159,3.3712 -7.3891,3.9398 -7.1793,4.4232 -6.9032,4.8226 -6.5911,5.136 -6.2587,5.3442 -5.8955,5.4198 -5.4959,5.3648 -5.0553,5.1796 -4.5721,4.9047 -4.1071,4.5818 -3.712,4.1944 -3.3745,3.7908 -3.1297,3.3957 -2.9965,3.0071 -2.9459,2.6424 -2.9796,2.3079 -3.0986,2.009 -3.2859,1.7294 -3.5088,1.4811 -3.7315,1.2891 -3.9533,1.1658 -4.1549,1.0986 -4.3061,1.0621 -4.4278,1.0612 -4.494,1.0987 -4.4906,1.1381 -4.4472,1.1784 -4.3821,1.2398 -4.3072,1.2938 -4.2052,1.361 -4.0681,1.4546 -3.7302,1.8341 -3.1521,2.567 L-2.8377,2.9658 " stroke-linecap="round" fill="none" stroke="#1d1d1d" stroke-width="4.5" stroke-dasharray="none" stroke-dashoffset="0"/></g></g><g transform="matrix(1, 0, 0, 1, 950.0168, 260.0056)" opacity="1"><g transform="scale(1)"><path d="M0,0 Q-0.0238,1.5583 -0.0303,2.1368 T-0.0402,3.2643 -0.0457,4.4231 -0.0486,5.7529 -0.0502,7.1788 -0.0453,8.579 -0.0368,9.9641 -0.0261,11.3422 -0.0081,12.7918 0.0135,14.4338 0.0372,16.2621 0.0562,18.115 0.0723,19.9813 0.0869,21.8524 0.1009,23.7261 0.1146,25.6805 0.1221,27.6737 0.1261,29.693 0.1283,31.6523 0.1295,33.4157 0.1302,34.9983 0.1366,36.4875 0.1462,37.8419 0.1514,39.0436 0.1542,40.0882 0.1497,41.0473 0.153,42.2666 0.1725,43.8692 L0.1831,44.741 " stroke-linecap="round" fill="none" stroke="#1d1d1d" stroke-width="4.5" stroke-dasharray="none" stroke-dashoffset="0"/></g></g><g transform="matrix(1, 0, 0, 1, 926.6306, 249.9749)" opacity="1"><g transform="scale(1)"><path d="M0,0 Q-0.2781,1.8418 -0.3811,2.5387 T-0.5402,3.8659 -0.6564,5.0902 -0.7492,6.2585 -0.7996,7.3679 -0.8271,8.4167 -0.842,9.4077 -0.8502,10.3101 -0.8546,11.1359 -0.857,11.8648 -0.8583,12.484 -0.8294,12.9883 -0.7567,13.3445 -0.6624,13.565 -0.5268,13.6583 -0.3413,13.6556 -0.1309,13.5989 0.1225,13.4825 0.4018,13.307 0.7223,13.0993 1.1475,12.9026 1.6843,12.7119 2.3114,12.4959 2.9879,12.2965 3.6614,12.131 4.3083,11.984 4.9408,11.8773 5.5627,11.846 6.1522,11.8556 6.9752,11.8609 8.1652,11.865 L8.8125,11.8672 " stroke-linecap="round" fill="none" stroke="#1d1d1d" stroke-width="4.5" stroke-dasharray="none" stroke-dashoffset="0"/></g></g><g transform="matrix(1, 0, 0, 1, 927.6287, 255.2516)" opacity="1"><g transform="scale(1)"><path d="M0,0 Q1.368,-0.1915 1.8358,-0.2618 T2.6517,-0.3887 3.2848,-0.5147 3.7997,-0.6403 4.2331,-0.7656 4.622,-0.9112 5.0045,-1.0474 5.3658,-1.1785 5.6942,-1.3069 6.0046,-1.4132 6.2697,-1.5098 6.5101,-1.5828 6.7549,-1.6408 7.002,-1.6906 7.2505,-1.7177 7.4996,-1.7507 7.7492,-1.7869 7.9776,-1.8066 8.1766,-1.8173 8.3633,-1.8049 8.5218,-1.7616 8.6437,-1.6993 8.7492,-1.6267 8.8279,-1.5119 8.8708,-1.3355 8.8941,-1.1072 8.9067,-0.8121 8.9136,-0.4418 8.896,0.0447 8.8472,0.6696 8.8029,1.4268 8.761,2.3334 8.6812,3.4176 8.5807,4.6522 8.4691,5.9686 8.3514,7.3331 8.2303,8.6846 8.1253,10.2356 8.0441,12.1879 L8,13.25 " stroke-linecap="round" fill="none" stroke="#1d1d1d" stroke-width="4.5" stroke-dasharray="none" stroke-dashoffset="0"/></g></g><g transform="matrix(1, 0, 0, 1, 925.1776, 352.3921)" opacity="1"><g transform="scale(1)"><path d="M0,0 Q-0.8301,2.5436 -1.1538,3.7013 T-1.7766,5.951 -2.3616,8.1269 -2.9239,10.2404 -3.4734,12.2451 -3.9932,14.0713 -4.52,15.8486 -5.1345,17.8795 L-5.4687,18.9844 " stroke-linecap="round" fill="none" stroke="#e03131" stroke-width="4.5" stroke-dasharray="none" stroke-dashoffset="0"/></g></g><g transform="matrix(1, 0, 0, 1, 925.3921, 352.2848)" opacity="1"><g transform="scale(1)"><path d="M0,0 Q1.026,2.4938 1.4761,3.5648 T2.3923,5.6077 3.3075,7.5251 4.1719,9.4 4.9592,11.25 5.6574,13.0384 6.2589,14.697 6.8551,16.4062 7.5587,18.4201 L7.9414,19.5156 " stroke-linecap="round" fill="none" stroke="#e03131" stroke-width="4.5" stroke-dasharray="none" stroke-dashoffset="0"/></g></g><g transform="matrix(1, 0, 0, 1, 922.3884, 364.1924)" opacity="1"><g transform="scale(1)"><path d="M0,0 Q2.5436,0 3.5303,-0.0251 T5.3948,-0.1117 7.3199,-0.2467 L8.3672,-0.3201 " stroke-linecap="round" fill="none" stroke="#e03131" stroke-width="4.5" stroke-dasharray="none" stroke-dashoffset="0"/></g></g><g transform="matrix(1, 0, 0, 1, 942.4526, 353.143)" opacity="1"><g transform="scale(1)"><path d="M0,0 Q-0.342,2.2016 -0.5081,3.2413 T-0.8624,5.3587 -1.2761,7.4876 -1.7224,9.5506 -2.1616,11.5279 -2.5715,13.4104 -2.992,15.4216 L-3.2207,16.5156 " stroke-linecap="round" fill="none" stroke="#e03131" stroke-width="4.5" stroke-dasharray="none" stroke-dashoffset="0"/></g></g><g transform="matrix(1, 0, 0, 1, 943.7399, 353.0358)" opacity="1"><g transform="scale(1)"><path d="M0,0 Q1.2219,2.4439 1.7983,3.5735 T2.9341,5.8075 4.0169,7.9794 5.0209,10.0675 5.9599,12.0103 6.8127,13.7245 7.6427,15.2431 8.5977,16.8364 L9.1172,17.7031 " stroke-linecap="round" fill="none" stroke="#e03131" stroke-width="4.5" stroke-dasharray="none" stroke-dashoffset="0"/></g></g><g transform="matrix(1, 0, 0, 1, 941.5944, 364.6215)" opacity="1"><g transform="scale(1)"><path d="M0,0 Q2.4439,-0.2919 3.5005,-0.3713 T5.5719,-0.4939 7.7972,-0.5886 L9.0078,-0.6401 " stroke-linecap="round" fill="none" stroke="#e03131" stroke-width="4.5" stroke-dasharray="none" stroke-dashoffset="0"/></g></g><g transform="matrix(1, 0, 0, 1, 962.2295, 351.6067)" opacity="1"><g transform="scale(1)"><path d="M0,0 Q-0.342,3.0833 -0.5081,4.4341 T-0.8624,7.0577 -1.2761,9.5358 -1.7224,11.8618 -2.1616,14.0089 -2.5965,16.0355 -3.0716,18.2287 L-3.3301,19.4219 " stroke-linecap="round" fill="none" stroke="#e03131" stroke-width="4.5" stroke-dasharray="none" stroke-dashoffset="0"/></g></g><g transform="matrix(1, 0, 0, 1, 962.6586, 351.4994)" opacity="1"><g transform="scale(1)"><path d="M0,0 Q1.368,1.9059 1.9614,2.8162 T3.0963,4.6617 4.1283,6.5954 5.0815,8.6003 5.967,10.6191 6.7908,12.5758 7.5328,14.3278 8.2553,16.0629 9.0918,18.0967 L9.5469,19.2031 " stroke-linecap="round" fill="none" stroke="#e03131" stroke-width="4.5" stroke-dasharray="none" stroke-dashoffset="0"/></g></g><g transform="matrix(1, 0, 0, 1, 962.3368, 362.2269)" opacity="1"><g transform="scale(1)"><path d="M0,0 Q2.7859,0.2919 4.4476,0.466 L6.1094,0.6401 " stroke-linecap="round" fill="none" stroke="#e03131" stroke-width="4.5" stroke-dasharray="none" stroke-dashoffset="0"/></g></g><g transform="matrix(1, 0, 0, 1, 984.3627, 352.143)" opacity="1"><g transform="scale(1)"><path d="M0,0 Q-0.6337,2.2479 -0.9795,3.4953 T-1.6844,6.009 -2.4576,8.6483 -3.2927,11.4057 -4.1389,14.3486 -5.0711,17.766 L-5.5781,19.625 " stroke-linecap="round" fill="none" stroke="#e03131" stroke-width="4.5" stroke-dasharray="none" stroke-dashoffset="0"/></g></g><g transform="matrix(1, 0, 0, 1, 983.8263, 352.0358)" opacity="1"><g transform="scale(1)"><path d="M0,0 Q1.4686,2.0573 2.0636,2.9589 T3.1764,4.7179 4.1496,6.4078 4.9978,8.0583 5.7505,9.6883 6.4298,11.2626 7.0683,12.7335 7.7087,14.0716 8.3029,15.2395 8.8203,16.2881 9.5168,17.4428 10.5078,18.8561 L11.0469,19.625 " stroke-linecap="round" fill="none" stroke="#e03131" stroke-width="4.5" stroke-dasharray="none" stroke-dashoffset="0"/></g></g><g transform="matrix(1, 0, 0, 1, 983.1827, 363.7288)" opacity="1"><g transform="scale(1)"><path d="M0,0 Q1.6138,-0.0957 2.2238,-0.1469 T3.6304,-0.2509 5.3776,-0.3669 L6.3281,-0.4299 " stroke-linecap="round" fill="none" stroke="#e03131" stroke-width="4.5" stroke-dasharray="none" stroke-dashoffset="0"/></g></g><g transform="matrix(1, 0, 0, 1, 1000.9903, 362.6905)" opacity="1"><g transform="scale(1)"><path d="M0,0 Q1.6138,-1.6646 2.2487,-2.2149 T3.4258,-3.1375 4.434,-3.7383 5.2986,-4.0652 6.0379,-4.1922 6.6841,-4.1883 7.3038,-4.0632 7.9348,-3.7997 8.5701,-3.3874 9.2578,-2.8438 10.0237,-2.2061 10.8073,-1.492 11.5756,-0.7136 12.3356,0.0998 13.1159,0.8866 13.9074,1.6085 14.6586,2.2702 15.386,2.8742 16.1469,3.3488 16.9777,3.607 17.8215,3.6744 18.6475,3.4925 19.535,3.0012 20.456,2.2687 21.3239,1.4051 22.1381,0.3472 23.01,-0.9915 L23.4844,-1.7197 " stroke-linecap="round" fill="none" stroke="#e03131" stroke-width="4.5" stroke-dasharray="none" stroke-dashoffset="0"/></g></g></svg>